PathFileType	4	(X/Y/Z)	Patient4_TMGait_0pt2_03_right_24.trc.trc
DataRate	CameraRate	NumFrames	NumMarkers	Units	OrigDataRate	OrigDataStartFrame	OrigNumFrames
49.469964664311	49.469964664311	5	33	mm	49.469964664311	1	       141
Frame#	Time	Sacral			L.Shoulder			Chest			R.Shoulder			Neck			R.ASIS			L.ASIS			R.Thigh.Superior			R.Thigh.Lateral			R.Thigh.Inferior			R.Patella			L.Thigh.Superior			L.Thigh.Lateral			L.Thigh.Inferior			L.Patella			L.Shank.Superior			L.Shank.Lateral			L.Shank.Inferior			R.Shank.Superior			R.Shank.Lateral			R.Shank.Inferior			R.Heel			R.Midfoot.Superior			R.Midfoot.Lateral			R.Toe			L.Heel			L.Midfoot.Lateral			L.Midfoot.Superior			L.Toe			L.Elbow			L.Wrist			R.Elbow			R.Wrist			
		X1	Y1	Z1	X2	Y2	Z2	X3	Y3	Z3	X4	Y4	Z4	X5	Y5	Z5	X6	Y6	Z6	X7	Y7	Z7	X8	Y8	Z8	X9	Y9	Z9	X10	Y10	Z10	X11	Y11	Z11	X12	Y12	Z12	X13	Y13	Z13	X14	Y14	Z14	X15	Y15	Z15	X16	Y16	Z16	X17	Y17	Z17	X18	Y18	Z18	X19	Y19	Z19	X20	Y20	Z20	X21	Y21	Z21	X22	Y22	Z22	X23	Y23	Z23	X24	Y24	Z24	X25	Y25	Z25	X26	Y26	Z26	X27	Y27	Z27	X28	Y28	Z28	X29	Y29	Z29	X30	Y30	Z30	X31	Y31	Z31	X32	Y32	Z32	X33	Y33	Z33	

1	51.240000000000	814.760655820115	996.651494682070	418.909307649344	997.825556286247	1420.824370629955	223.328242749138	1100.322582907903	1352.870121979432	384.210625634029	1022.843378802071	1431.750834111454	557.011997472537	986.079913344464	1486.820509738131	379.527007411492	1047.110254381329	939.054836829873	531.949634933851	1027.916809385837	950.964228782221	259.070546516738	1126.449522176668	764.268180949155	499.866771578423	1090.921933899303	647.223385853857	580.468383474601	1173.074575792983	602.044230004894	495.921847132548	1189.465321623835	486.848900012835	521.858670513909	1100.655596925537	753.327961830220	296.391111139533	1023.428095345342	613.142269954315	239.683237784980	1125.500578562620	561.166787831785	309.623870490622	1134.467028109223	489.074636691048	319.877041684243	1102.379553535234	411.195506276748	313.858074514283	1007.667702685903	300.151393796502	263.060627259821	1050.279366660509	189.085098384226	339.071127772112	1101.874207722257	421.274460631738	542.026038409002	978.550300400507	408.245805308947	613.102447337562	943.285747836698	299.189609565674	575.920506268056	731.075492263476	270.323275272726	564.249771676650	890.978275334210	187.526880408768	605.392367319775	782.800669443752	206.362251510062	639.834219513889	939.062407408616	67.940796094225	636.853763182359	913.976379503695	38.304248707559	381.770810372594	986.344601719612	35.118189658236	299.601757239598	1069.381528887087	97.195218766961	325.624635768292	1197.067240275268	49.053724837376	294.199276275694	1030.222234299482	1070.499380485053	100.222877854759	1156.420465248383	840.570672569118	121.928967650645	1072.647411421723	1080.186656221323	672.372253667920	1263.189195615639	900.149477398862	657.788907920341	
2	51.260214285714	814.045219562722	994.059055561824	416.135459114149	997.815721633728	1419.454864250671	222.575341293352	1099.283081416251	1351.091830250533	383.907766472072	1020.271232641702	1428.560657713418	556.817557209277	985.068999449166	1484.971567730433	379.066101216686	1046.290292415881	937.448961482483	530.165778395542	1028.496582474753	949.450605887715	257.063355823114	1128.658565140277	765.251375073856	499.708753020948	1094.420819078071	648.056738106670	581.018949769265	1178.809391126393	604.881042808276	497.673728586079	1197.306742155189	490.283144336896	523.986034499683	1101.608046659071	752.142369424004	295.506642294661	1025.222413986276	611.576374257827	238.695675980251	1126.717679217910	559.975882618934	309.656007006492	1135.845099432249	487.609371347400	320.079108946847	1102.919105365567	409.524767774759	313.962140300273	1007.194868199602	299.453213906681	262.765449179097	1047.906970719794	188.169188239463	339.239421250853	1110.920990697771	422.832824934738	543.497929603911	986.873698063546	407.293823194370	612.693741200263	954.960607611369	296.940608278897	576.036966450659	743.923712315237	262.558647387736	561.058405622455	905.014727687987	184.694121960016	605.977575216574	795.994246510484	201.364454300645	638.652873374320	955.504266261721	66.933727250420	640.575918227322	909.891189643115	38.314202366450	381.708949959662	982.298787369865	35.098117957860	299.565740803101	1065.480964936887	97.015084455020	325.820381237275	1193.084390682559	48.781974203817	294.243824556821	1037.420735065268	1070.902759189055	97.888039901206	1178.508580074944	852.021200456183	121.708250045514	1053.702058165542	1075.343275480327	670.389128799675	1219.450118549280	878.838073664579	659.275242912754	
3	51.280428571429	813.344892986850	991.819287640663	413.307292220741	998.078941368360	1418.386625987410	221.882777313879	1098.343277870908	1349.586068035777	383.751306728292	1017.668330080649	1425.724372475102	556.660209312015	984.201876813898	1483.418216128156	378.633475927569	1045.373557228450	936.139729135818	528.530803288989	1029.172913482406	948.209642740045	255.178589473351	1130.594059442937	766.399141287776	499.710407752745	1097.449719158707	649.031144418998	581.672162772105	1183.942659439933	607.722897106631	499.490370819097	1204.549025925258	493.957408547513	526.231992614526	1102.355516735659	751.038184510050	294.705564925374	1026.595895593434	610.208948436590	237.729985016748	1127.425047729787	558.835913212380	309.695025522621	1136.613954261217	486.246680291812	320.283401666687	1102.909029141291	408.001596444892	314.051979292562	1006.275161066543	298.810867811600	262.471516429437	1045.231158609947	187.336645493414	339.393615279942	1119.904985739704	424.424441297808	545.126722799999	995.601788691590	405.405435173722	612.561473904134	967.951719187104	293.801629671548	576.400975612412	758.875265566782	252.284196483670	558.332681758737	921.405996332458	180.791227470435	606.781647735467	811.703000714234	194.269505648055	637.786970560905	975.156573102590	65.492645107688	644.246979492695	905.667169142970	38.319858430736	381.640213626227	978.115486126482	35.076563877718	299.525726832249	1061.424788180211	96.856196497440	325.990915396217	1188.957136267336	48.550622898318	294.285119885165	1044.923032308666	1071.768276965248	95.444266460033	1200.947911906758	864.550273976534	121.552062162477	1034.120946522487	1071.195587876711	668.459678640364	1174.551710344461	858.915442713572	660.779821198692	
4	51.300642857143	812.699633812820	990.161012159637	410.511236958409	998.735191542935	1417.772499520979	221.307639885045	1097.582229436787	1348.520698676184	383.821457448714	1015.107883266238	1423.499847518783	556.559506235840	983.573013951797	1482.334734977910	378.255389388847	1044.349553332330	935.287115893450	527.178443774302	1029.978920083011	947.400883668415	253.549424215447	1132.043239593271	767.715008616235	499.934482555178	1099.693680244210	650.171623119005	582.455093823128	1188.009329597618	610.457298525828	501.333701169641	1210.670706891912	497.843823593219	528.555704056932	1102.771307247481	750.082638659347	294.071324971047	1027.310639405757	609.173625062041	236.830377469091	1127.359545231714	557.805675594566	309.743792917302	1136.460313570200	485.076158953453	320.481293959825	1102.094934967033	406.742642775535	314.114978805376	1004.732535634992	298.269860718095	262.184846914851	1042.197425517184	186.652511955821	339.521124317658	1128.486823980448	426.030693978384	546.909318112128	1004.672731048907	402.311106667624	612.841595202461	982.399644984220	289.613012449920	577.086366904601	776.394095801666	238.989580820813	556.379447544955	940.609261856922	175.650812310252	607.817803798653	830.536008051311	184.630667430540	637.381787445584	998.682946603492	63.664027893775	647.627211614606	901.376115282585	38.317690627780	381.567036567369	973.865719384522	35.053516138679	299.481720098975	1057.272174358744	96.732306217169	326.120744983145	1184.751597169514	48.384540707266	294.320992945547	1052.649493615015	1073.278494515917	92.937954342703	1223.143182313986	878.239408003604	121.515140839871	1014.261785837110	1068.255967702536	666.676772092734	1129.567702646440	841.734148444655	662.275894451574	
5	51.320857142857	812.150524223656	989.255833780996	407.825556670071	999.877369601976	1417.717042060611	220.897958418467	1097.059063624727	1348.023963015112	384.186418519131	1012.640358324816	1422.090682465531	556.527788120342	983.251152597759	1481.847789835568	377.949531388582	1043.215875895482	935.001299807245	526.217261627280	1030.940240368108	947.137741884058	252.288539073062	1132.823210378336	769.174892036216	500.409601420664	1100.914105431998	651.483455233252	583.379634126715	1190.636376568305	612.979425450841	503.143873967555	1215.265590570404	501.903935970349	530.887512248553	1102.756943593547	749.322587637786	293.685704612764	1027.192955521210	608.571780836951	236.039477652780	1126.318546238139	556.930322015261	309.823665740613	1135.142229133413	484.164473831520	320.683189540709	1100.283006845837	405.836772294312	314.152259830134	1002.434084203560	297.866629498612	261.915673907328	1038.762213530676	186.167143514483	339.617448626399	1136.393436644813	427.652964270656	548.812296353829	1014.069192936234	397.894388078346	613.625515244426	998.384052221985	284.384815334520	578.123276590637	796.843087989572	222.543788179360	555.425096966738	962.909846837041	169.328685185255	609.054945926160	852.945244895424	172.360184238218	637.524698247571	1026.456870018542	61.679142328142	650.483126979682	897.068367644809	38.304923857079	381.492633079351	969.598790742419	35.029506776574	299.434570417951	1053.063777215546	96.653740362608	326.201028458174	1180.513087673411	48.301489049865	294.351043368484	1060.563855601153	1075.572977096399	90.415383039125	1244.629842432062	893.147833528799	121.653093410857	994.395537701972	1066.962363684439	665.124576056842	1085.433892446236	828.359070750257	663.758151394818	
